HIERARCHY
ROOT Hips
{
	OFFSET 0.000000 0.000000 0.000000
	CHANNELS 6 Xposition Yposition Zposition Xrotation Yrotation Zrotation
	JOINT LeftUpLeg_virtual
	{
		OFFSET 0.000000 0.000000 0.000000
		CHANNELS 3 Xrotation Yrotation Zrotation
		JOINT LeftUpLeg
		{
			OFFSET 10.205400 -3.823500 0.155100
			CHANNELS 3 Xrotation Yrotation Zrotation
			JOINT LeftLeg
			{
				OFFSET 0.708757 -12.982077 0.567790
				CHANNELS 3 Xrotation Yrotation Zrotation
				JOINT LeftFoot
				{
					OFFSET -0.708756 -10.717838 -2.184338
					CHANNELS 3 Xrotation Yrotation Zrotation
					JOINT LeftToeBase
					{
						OFFSET 0.108149 -7.191104 7.560241
						CHANNELS 3 Xrotation Yrotation Zrotation
						JOINT LeftToe_End
						{
							OFFSET 0.070230 0.081724 4.490308
							CHANNELS 3 Xrotation Yrotation Zrotation
							End Site
							{
								OFFSET 0 0 0
							}
						}
					}
				}
			}
		}
	}
	JOINT RightUpLeg_virtual
	{
		OFFSET 0.000000 0.000000 0.000000
		CHANNELS 3 Xrotation Yrotation Zrotation
		JOINT RightUpLeg
		{
			OFFSET -10.205400 -3.823500 0.005500
			CHANNELS 3 Xrotation Yrotation Zrotation
			JOINT RightLeg
			{
				OFFSET -0.708756 -12.982134 0.610632
				CHANNELS 3 Xrotation Yrotation Zrotation
				JOINT RightFoot
				{
					OFFSET 0.708754 -10.717769 -1.945823
					CHANNELS 3 Xrotation Yrotation Zrotation
					JOINT RightToeBase
					{
						OFFSET -0.108140 -7.191069 7.372968
						CHANNELS 3 Xrotation Yrotation Zrotation
						JOINT RightToe_End
						{
							OFFSET -0.070227 0.081735 4.479403
							CHANNELS 3 Xrotation Yrotation Zrotation
							End Site
							{
								OFFSET 0 0 0
							}
						}
					}
				}
			}
		}
	}
	JOINT Spine_virtual
	{
		OFFSET 0.000000 0.000000 0.000000
		CHANNELS 3 Xrotation Yrotation Zrotation
		JOINT Spine
		{
			OFFSET 0.000000 6.876099 0.125700
			CHANNELS 3 Xrotation Yrotation Zrotation
			JOINT Spine1
			{
				OFFSET 0.000000 5.730043 0.104720
				CHANNELS 3 Xrotation Yrotation Zrotation
				JOINT Spine1_split
				{
					OFFSET 0.000000 5.730043 0.104720
					CHANNELS 3 Xrotation Yrotation Zrotation
					JOINT Spine2
					{
						OFFSET 0.000000 5.730043 0.104720
						CHANNELS 3 Xrotation Yrotation Zrotation
						JOINT Neck_virtual
						{
							OFFSET 0.000000 0.000000 0.000000
							CHANNELS 3 Xrotation Yrotation Zrotation
							JOINT Neck
							{
								OFFSET 0.000000 10.314075 0.188496
								CHANNELS 3 Xrotation Yrotation Zrotation
								JOINT Head
								{
									OFFSET 0.000000 7.643700 -2.377400
									CHANNELS 3 Xrotation Yrotation Zrotation
									JOINT HeadTop_End
									{
										OFFSET 0.000000 43.788605 -13.619600
										CHANNELS 3 Xrotation Yrotation Zrotation
										End Site
										{
											OFFSET 0 0 0
										}
									}
								}
							}
						}
						JOINT LeftShoulder_virtual
						{
							OFFSET 0.000000 0.000000 0.000000
							CHANNELS 3 Xrotation Yrotation Zrotation
							JOINT LeftShoulder
							{
								OFFSET 2.196100 4.412489 0.087492
								CHANNELS 3 Xrotation Yrotation Zrotation
								JOINT LeftShoulder_split
								{
									OFFSET 2.196100 4.412489 0.087492
									CHANNELS 3 Xrotation Yrotation Zrotation
									JOINT LeftArm
									{
										OFFSET 8.771219 -2.981674 -0.026999
										CHANNELS 3 Xrotation Yrotation Zrotation
										JOINT LeftForeArm
										{
											OFFSET 8.512804 0.000000 -0.000000
											CHANNELS 3 Xrotation Yrotation Zrotation
											JOINT LeftHand
											{
												OFFSET 18.484802 0.000000 -0.000000
												CHANNELS 3 Xrotation Yrotation Zrotation
												End Site
												{
													OFFSET 0 0 0
												}
											}
										}
									}
								}
							}
						}
						JOINT RightShoulder_virtual
						{
							OFFSET 0.000000 0.000000 0.000000
							CHANNELS 3 Xrotation Yrotation Zrotation
							JOINT RightShoulder
							{
								OFFSET -2.196100 4.412496 0.070690
								CHANNELS 3 Xrotation Yrotation Zrotation
								JOINT RightShoulder_split
								{
									OFFSET -2.196100 4.412496 0.070690
									CHANNELS 3 Xrotation Yrotation Zrotation
									JOINT RightArm
									{
										OFFSET -8.771282 -2.981682 -0.094208
										CHANNELS 3 Xrotation Yrotation Zrotation
										JOINT RightForeArm
										{
											OFFSET -8.494598 0.000000 0.000000
											CHANNELS 3 Xrotation Yrotation Zrotation
											JOINT RightHand
											{
												OFFSET -18.483803 0.000000 0.000001
												CHANNELS 3 Xrotation Yrotation Zrotation
												End Site
												{
													OFFSET 0 0 0
												}
											}
										}
									}
								}
							}
						}
					}
				}
			}
		}
	}
}
MOTION
Frames: 9
Frame Time: 0.03333333
-100.935204 33.536499 -5.530428 0.000000 0.000000 0.000000 -0.250207 -1.852420 0.148914 -20.349630 12.858970 15.004321 24.190986 -10.433484 -1.363918 -7.552064 -10.856972 -7.851816 1.635556 -0.000010 0.000001 0.000000 0.000000 0.000000 -0.250207 -1.852420 0.148914 -6.440809 -7.838297 -13.008363 23.801498 1.995959 6.102689 -17.373957 -3.641076 5.412224 -0.140951 -0.000001 -0.000001 0.000000 0.000000 0.000000 -0.250207 -1.852420 0.148914 1.359087 0.211966 0.507707 1.526173 0.604860 0.276834 0.000000 0.000000 0.000000 0.000000 0.000000 0.000000 1.528455 0.599783 0.275481 2.397566 -0.807861 -0.311582 -5.722449 -4.753665 1.062652 0.000000 0.000000 0.000000 1.528455 0.599783 0.275481 0.680080 -3.439159 -11.860481 0.000000 0.000000 0.000000 7.201837 -16.916697 -65.380251 0.000005 -20.680378 -0.000014 0.000000 0.000000 0.000000 1.528455 0.599783 0.275481 0.475755 8.188389 13.746906 0.000000 0.000000 0.000000 13.305188 7.816387 61.653331 -0.000023 31.239062 0.000001 0.000000 0.000000 0.000000 
-100.925674 33.522018 -5.520638 0.000000 0.000000 0.000000 -0.174153 -1.860169 0.167325 -20.476523 12.855223 14.988871 24.352519 -10.455380 -1.409554 -7.650593 -10.826593 -7.717061 1.731792 0.000003 0.000002 0.000000 0.000000 0.000000 -0.174153 -1.860169 0.167325 -6.632515 -7.892016 -13.092201 23.955574 2.124224 6.108364 -17.358260 -3.644244 5.416397 -0.157706 0.000001 -0.000002 0.000000 0.000000 0.000000 -0.174153 -1.860169 0.167325 1.375691 0.228449 0.503668 1.534144 0.618928 0.275135 0.000000 0.000000 0.000000 0.000000 0.000000 0.000000 1.536388 0.613600 0.273539 2.245560 -0.804274 -0.383274 -6.001869 -4.864041 1.193530 0.000000 0.000000 0.000000 1.536388 0.613600 0.273539 0.674981 -2.709245 -11.957031 0.000000 0.000000 0.000000 6.658596 -17.652571 -64.530043 0.000012 -22.655389 0.000020 0.000000 0.000000 0.000000 1.536388 0.613600 0.273539 0.480203 7.824794 13.908616 0.000000 0.000000 0.000000 13.803070 8.765884 60.021264 -0.000016 33.727433 -0.000006 0.000000 0.000000 0.000000 
-100.905815 33.520626 -5.526081 0.000000 0.000000 0.000000 -0.090458 -1.912707 0.196518 -20.545313 12.856819 14.935588 24.413306 -10.470486 -1.447148 -7.757363 -10.730366 -7.652958 1.695375 0.000002 0.000001 0.000000 0.000000 0.000000 -0.090458 -1.912707 0.196518 -6.837948 -7.886816 -13.166192 24.087282 2.215362 6.059391 -17.427400 -3.665332 5.461480 -0.180885 -0.000010 0.000003 0.000000 0.000000 0.000000 -0.090458 -1.912707 0.196518 1.392808 0.269871 0.501696 1.546219 0.684569 0.271725 0.000000 0.000000 0.000000 0.000000 0.000000 0.000000 1.548308 0.680139 0.273104 2.096727 -0.783602 -0.438585 -6.737987 -4.857628 1.284561 0.000000 0.000000 0.000000 1.548308 0.680139 0.273104 0.693744 -1.794111 -11.392962 0.000000 0.000000 0.000000 6.723549 -17.114362 -63.661147 0.000023 -28.975165 0.000021 0.000000 0.000000 0.000000 1.548308 0.680139 0.273104 0.524901 7.233780 13.397688 0.000000 0.000000 0.000000 14.296294 9.848254 58.493986 -0.000003 38.634548 0.000000 0.000000 0.000000 0.000000 
-100.873573 33.545059 -5.559029 0.000000 0.000000 0.000000 -0.065606 -1.968051 0.238356 -20.441354 12.831305 14.770912 24.208012 -10.440680 -1.436289 -7.740302 -10.596085 -7.707403 1.676326 -0.000003 -0.000004 0.000000 0.000000 0.000000 -0.065606 -1.968051 0.238356 -6.937201 -7.872583 -13.236323 24.060516 2.289214 5.989162 -17.563797 -3.691201 5.512036 -0.112295 0.000001 0.000003 0.000000 0.000000 0.000000 -0.065606 -1.968051 0.238356 1.381302 0.323779 0.511529 1.552734 0.816360 0.263448 0.000000 0.000000 0.000000 0.000000 0.000000 0.000000 1.554471 0.814353 0.264977 2.136419 -0.746275 -0.424608 -7.795953 -4.720162 1.455542 0.000000 0.000000 0.000000 1.554471 0.814353 0.264977 0.727396 -0.777327 -10.172454 0.000000 0.000000 0.000000 7.163288 -15.478757 -63.252531 -0.000001 -39.799413 0.000002 0.000000 0.000000 0.000000 1.554471 0.814353 0.264977 0.589091 6.841272 12.253653 0.000000 0.000000 0.000000 15.175154 10.404255 56.827068 0.000005 47.078319 0.000011 0.000000 0.000000 0.000000 
-100.836998 33.577717 -5.619551 0.000000 0.000000 0.000000 0.093111 -1.991742 0.284291 -20.569620 12.645740 14.591786 23.958714 -10.434634 -1.410249 -7.527959 -10.370373 -8.006383 1.803786 0.000002 -0.000004 0.000000 0.000000 0.000000 0.093111 -1.991742 0.284291 -7.248665 -7.843437 -13.280238 24.048673 2.315132 5.878775 -17.681429 -3.685328 5.576492 0.073980 0.000006 -0.000000 0.000000 0.000000 0.000000 0.093111 -1.991742 0.284291 1.248066 0.431500 0.564650 1.474142 1.049105 0.244177 0.000000 0.000000 0.000000 0.000000 0.000000 0.000000 1.474958 1.050315 0.238231 2.356075 -0.713907 -0.381636 -8.927366 -4.662899 1.825292 0.000000 0.000000 0.000000 1.474958 1.050315 0.238231 0.742790 0.410773 -8.702778 0.000000 0.000000 0.000000 6.708955 -13.853787 -63.740070 0.000011 -52.254564 0.000020 0.000000 0.000000 0.000000 1.474958 1.050315 0.238231 0.650629 6.657743 10.923907 0.000000 0.000000 0.000000 15.612981 9.985277 55.028013 -0.000015 57.559684 -0.000009 0.000000 0.000000 0.000000 
-100.793724 33.592396 -5.706827 0.000000 0.000000 0.000000 0.574211 -1.809033 0.330460 -21.334144 12.222430 14.337260 24.057246 -10.421223 -1.362068 -7.483744 -10.186308 -8.164457 2.050134 -0.000002 0.000001 0.000000 0.000000 0.000000 0.574211 -1.809033 0.330460 -7.984140 -7.770811 -13.300663 24.300029 2.197034 5.693204 -17.889691 -3.754377 5.729009 0.245140 -0.000008 0.000001 0.000000 0.000000 0.000000 0.574211 -1.809033 0.330460 1.018814 0.517979 0.671281 1.325836 1.258944 0.226371 0.000000 0.000000 0.000000 0.000000 0.000000 0.000000 1.325621 1.262211 0.202448 2.633767 -0.702111 -0.390766 -9.968016 -4.831650 2.305953 0.000000 0.000000 0.000000 1.325621 1.262211 0.202448 0.709521 1.596734 -7.520366 0.000000 0.000000 0.000000 4.034812 -13.354458 -64.635255 0.000020 -62.074357 0.000044 0.000000 0.000000 0.000000 1.325621 1.262211 0.202448 0.701474 6.393132 9.593136 0.000000 0.000000 0.000000 14.403884 8.966729 53.653755 0.000022 67.534636 -0.000019 0.000000 0.000000 0.000000 
-100.744690 33.587399 -5.826931 0.000000 0.000000 0.000000 1.328411 -1.194584 0.297701 -22.904925 11.437914 14.024989 24.580131 -10.386833 -1.204850 -7.366585 -10.229498 -8.337459 2.366270 0.000000 0.000003 0.000000 0.000000 0.000000 1.328411 -1.194584 0.297701 -8.851075 -7.620410 -13.159542 24.633301 1.581739 5.411036 -18.155690 -3.862590 6.066516 0.388406 -0.000001 0.000001 0.000000 0.000000 0.000000 1.328411 -1.194584 0.297701 0.852477 0.449083 0.906512 1.239459 1.299765 0.233991 0.000000 0.000000 0.000000 0.000000 0.000000 0.000000 1.238627 1.307031 0.200926 2.822899 -0.722580 -0.428110 -10.875241 -5.162095 2.675379 0.000000 0.000000 0.000000 1.238627 1.307031 0.200926 0.668158 2.278992 -6.992468 0.000000 0.000000 0.000000 -1.021975 -13.419017 -65.219373 0.000030 -67.550059 0.000033 0.000000 0.000000 0.000000 1.238627 1.307031 0.200926 0.732171 5.963991 8.393998 0.000000 0.000000 0.000000 11.004847 7.925348 52.782568 -0.000006 75.304816 0.000028 0.000000 0.000000 0.000000 
-100.704109 33.527279 -5.984022 0.000000 0.000000 0.000000 2.354220 -0.344793 0.334814 -25.089149 10.466853 13.497507 25.199267 -10.335044 -1.010332 -6.758610 -10.370641 -8.364063 2.661726 -0.000004 0.000005 0.000000 0.000000 0.000000 2.354220 -0.344793 0.334814 -10.512490 -7.258024 -13.050029 25.881188 0.718125 4.897352 -18.389723 -4.010470 6.616480 0.757604 -0.000000 -0.000001 0.000000 0.000000 0.000000 2.354220 -0.344793 0.334814 0.867468 0.314310 1.059114 1.304368 1.269883 0.240844 0.000000 0.000000 0.000000 0.000000 0.000000 0.000000 1.302907 1.281811 0.197412 2.755943 -0.784363 -0.420459 -11.879399 -5.562362 2.821787 0.000000 0.000000 0.000000 1.302907 1.281811 0.197412 0.673181 2.000909 -7.142485 0.000000 0.000000 0.000000 -7.710894 -13.159293 -65.085426 -0.000019 -69.455476 0.000003 0.000000 0.000000 0.000000 1.302907 1.281811 0.197412 0.731942 5.326655 7.585557 0.000000 0.000000 0.000000 5.660956 7.478839 51.906303 0.000172 80.436884 -0.000177 0.000000 0.000000 0.000000 
-100.661896 33.182999 -6.173885 0.000000 0.000000 0.000000 3.677552 0.142170 0.509723 -28.936195 9.138145 13.111298 28.948753 -10.355534 -0.892022 -7.699904 -9.961216 -7.931756 2.782368 0.000006 -0.000002 0.000000 0.000000 0.000000 3.677552 0.142170 0.509723 -14.809303 -6.835301 -13.399405 31.199983 0.874616 3.976159 -20.290638 -4.298889 7.236838 1.247042 -0.000008 0.000001 0.000000 0.000000 0.000000 3.677552 0.142170 0.509723 1.081657 0.314561 1.069292 1.525974 1.302877 0.152195 0.000000 0.000000 0.000000 0.000000 0.000000 0.000000 1.522495 1.321597 0.098562 2.315015 -0.857822 -0.390195 -13.438445 -5.976864 2.926298 0.000000 0.000000 0.000000 1.522495 1.321597 0.098562 0.713268 0.734111 -7.526337 0.000000 0.000000 0.000000 -14.993727 -12.581013 -64.027313 0.000022 -70.280563 0.000018 0.000000 0.000000 0.000000 1.522495 1.321597 0.098562 0.713622 4.681403 7.318194 0.000000 0.000000 0.000000 -0.873624 7.721157 50.616927 -0.000122 83.839507 0.000129 0.000000 0.000000 0.000000 
